<svg xmlns="http://www.w3.org/2000/svg" viewBox="0 0 512 512">
<defs>
 <linearGradient id="g" x1="0" y1="0" x2="1" y2="1"><stop stop-color="#0b6b45"/><stop offset="1" stop-color="#04331f"/></linearGradient>
 <linearGradient id="gold" x1="0" y1="0" x2="1" y2="1"><stop stop-color="#fff1a8"/><stop offset=".45" stop-color="#d7a62e"/><stop offset="1" stop-color="#fff0a0"/></linearGradient>
 <filter id="s"><feDropShadow dx="0" dy="5" stdDeviation="5" flood-opacity=".45"/></filter>
</defs>
<rect x="6" y="6" width="500" height="500" rx="70" fill="url(#g)" stroke="url(#gold)" stroke-width="12"/>
<rect x="20" y="20" width="472" height="472" rx="58" fill="none" stroke="#8ed9a5" stroke-opacity=".35" stroke-width="3"/>
<path d="M80 250 Q80 105 256 55 Q432 105 432 250 V335 H80Z" fill="#f7f0d8" stroke="url(#gold)" stroke-width="8"/>
<g fill="url(#g)" stroke="url(#gold)" stroke-width="5">
<path d="M126 290V160l26-20 26 20v130z"/><path d="M334 290V160l26-20 26 20v130z"/>
<path d="M174 290V205h164v85z"/>
<path d="M203 290V212h106v78z"/>
<path d="M205 205 Q256 145 307 205Z"/>
</g>
<path d="M256 105v45" stroke="url(#gold)" stroke-width="6"/>
<circle cx="256" cy="94" r="13" fill="url(#gold)"/>
<path d="M256 67c18 8 20 26 4 38 5-15-3-26-14-30z" fill="url(#gold)"/>
<g fill="url(#gold)">
<circle cx="152" cy="145" r="8"/><circle cx="360" cy="145" r="8"/>
</g>
<path d="M95 345H417" stroke="url(#gold)" stroke-width="5"/>
<text x="256" y="388" text-anchor="middle" font-family="Georgia,serif" font-size="38" font-weight="700" fill="#fff">MUSHOLA</text>
<text x="256" y="435" text-anchor="middle" font-family="Georgia,serif" font-size="54" font-weight="900" letter-spacing="3" fill="url(#gold)" filter="url(#s)">AT TAQWA</text>
<path d="M150 452H362" stroke="url(#gold)" stroke-width="4"/>
</svg>